#!OML:ASF G:\JayActor3\Patient Classification 1\Patient 1\Session 6\male.ASF
:FULLY-SPECIFIED
:DEGREES
2777
root -33.471 15.8226 -8.94414 556.939 -23.447 -543.097
lowerback 32.822 4.21075 1.67012
upperback 15.6813 1.89163 5.24506
thorax 0.168047 -0.794768 4.04335
lowerneck -1.03712 -5.70787 0.0584008
upperneck -15.9225 -7.51362 6.96491
head -4.32276 -4.43786 2.40001
rclavicle 2.54444e-014 5.48646e-014
rhumerus -18.1575 8.81604 -69.2776
rradius 57.8208
rwrist -5.12207
rhand -25.9712 -2.98937
rfingers 7.12502
rthumb 0.57356 -32.9683
lclavicle 2.54444e-014 5.48646e-014
lhumerus -7.39433 -17.2199 73.4341
lradius 57.9496
lwrist 28.9103
lhand -26.341 -0.773118
lfingers 7.12502
lthumb 0.216407 29.2065
rfemur -51.2857 -5.07738 23.151
rtibia 59.2755
rfoot -21.6027 -16.598
rtoes -6.20066
lfemur -47.3509 15.0317 -22.953
ltibia 57.794
lfoot -16.8817 11.4876
ltoes -21.2853
2778
root -33.4773 15.8168 -8.9738 556.876 -23.4586 -543.031
lowerback 32.8079 4.21737 1.69753
upperback 15.6676 1.91355 5.25535
thorax 0.158139 -0.781303 4.03342
lowerneck -1.00975 -5.71381 0.0505329
upperneck -15.9418 -7.51845 6.98401
head -4.33187 -4.44162 2.40881
rclavicle -3.81667e-014 -1.19271e-014
rhumerus -18.1925 8.81943 -69.2655
rradius 57.7573
rwrist -5.11419
rhand -25.9436 -3.02308
rfingers 7.12502
rthumb 0.600211 -33.002
lclavicle -3.81667e-014 -1.19271e-014
lhumerus -7.53581 -17.1933 73.497
lradius 57.8752
lwrist 28.8871
lhand -26.3256 -0.762414
lfingers 7.12502
lthumb 0.231229 29.2172
rfemur -51.1819 -5.07708 23.2412
rtibia 59.3889
rfoot -21.9764 -16.4476
rtoes -5.36743
lfemur -47.7652 14.9726 -23.1076
ltibia 57.5881
lfoot -16.9228 10.8888
ltoes -22.8064
2779
root -33.4833 15.8091 -9.00162 556.809 -23.4872 -542.915
lowerback 32.7916 4.22093 1.75298
upperback 15.6488 1.94112 5.27675
thorax 0.144416 -0.763624 4.0187
lowerneck -0.981765 -5.7182 0.0372236
upperneck -15.9551 -7.52075 7.00587
head -4.33895 -4.44363 2.41906
rclavicle 1.59028e-015 2.14687e-014
rhumerus -18.2147 8.82089 -69.2532
rradius 57.7054
rwrist -5.1129
rhand -25.9064 -3.09743
rfingers 7.12502
rthumb 0.636125 -33.0762
lclavicle 1.59028e-015 2.14687e-014
lhumerus -7.66695 -17.1541 73.553
lradius 57.7882
lwrist 28.8795
lhand -26.3238 -0.752372
lfingers 7.12502
lthumb 0.232971 29.2272
rfemur -51.1072 -5.06109 23.3854
rtibia 59.5068
rfoot -22.3551 -16.3137
rtoes -4.50317
lfemur -48.2419 14.8962 -23.2217
ltibia 57.3791
lfoot -16.9672 10.2635
ltoes -24.3324
2780
root -33.49 15.8007 -9.02842 556.736 -23.5157 -542.789
lowerback 32.7779 4.22979 1.80536
upperback 15.6322 1.97352 5.30057
thorax 0.131669 -0.744285 4.00674
lowerneck -0.957083 -5.72329 0.0279598
upperneck -15.9627 -7.52448 7.02268
head -4.34411 -4.44599 2.42686
rclavicle 6.36111e-014 3.81667e-014
rhumerus -18.2269 8.82027 -69.2387
rradius 57.6688
rwrist -5.12244
rhand -25.8665 -3.22405
rfingers 7.12502
rthumb 0.674654 -33.2027
lclavicle 6.36111e-014 3.81667e-014
lhumerus -7.7882 -17.1088 73.6028
lradius 57.6955
lwrist 28.8946
lhand -26.3347 -0.736096
lfingers 7.12502
lthumb 0.222466 29.2435
rfemur -51.0341 -5.04246 23.5364
rtibia 59.6258
rfoot -22.6983 -16.2095
rtoes -3.78058
lfemur -48.7266 14.7998 -23.3315
ltibia 57.1336
lfoot -17.0143 9.63496
ltoes -25.8592
2781
root -33.4971 15.7908 -9.05383 556.656 -23.552 -542.641
lowerback 32.7679 4.23974 1.86693
upperback 15.616 2.00938 5.32913
thorax 0.118068 -0.723287 3.99387
lowerneck -0.930501 -5.72872 0.0208538
upperneck -15.9705 -7.52895 7.03571
head -4.34987 -4.44861 2.43327
rclavicle 6.20208e-014 2.22639e-014
rhumerus -18.2234 8.80382 -69.2272
rradius 57.6343
rwrist -5.13116
rhand -25.8298 -3.35836
rfingers 7.12502
rthumb 0.710121 -33.3369
lclavicle 6.20208e-014 2.22639e-014
lhumerus -7.89895 -17.0593 73.6415
lradius 57.5995
lwrist 28.9232
lhand -26.3705 -0.715026
lfingers 7.12502
lthumb 0.187881 29.2646
rfemur -50.971 -5.01639 23.7089
rtibia 59.7467
rfoot -22.9714 -16.1635
rtoes -3.32886
lfemur -49.2267 14.6856 -23.4231
ltibia 56.8471
lfoot -17.0495 9.02716
ltoes -27.3635
2782
root -33.5083 15.7845 -9.08066 556.567 -23.5333 -542.599
lowerback 32.7685 4.27373 1.84364
upperback 15.6251 2.04267 5.32713
thorax 0.124309 -0.709517 3.99445
lowerneck -0.904259 -5.74443 0.0245003
upperneck -15.9786 -7.54637 7.05219
head -4.35554 -4.4584 2.43936
rclavicle 7.79236e-014 1.66979e-014
rhumerus -18.219 8.77972 -69.2128
rradius 57.6171
rwrist -5.14892
rhand -25.8003 -3.49261
rfingers 7.12502
rthumb 0.738593 -33.4711
lclavicle 7.79236e-014 1.66979e-014
lhumerus -8.00112 -17.0106 73.6769
lradius 57.5043
lwrist 28.9588
lhand -26.4078 -0.71429
lfingers 7.12502
lthumb 0.151889 29.2654
rfemur -50.8308 -5.02741 23.7517
rtibia 59.864
rfoot -23.2245 -16.0713
rtoes -2.96027
lfemur -49.5974 14.5656 -23.6263
ltibia 56.4799
lfoot -17.1319 8.4541
ltoes -28.6919
2783
root -33.5208 15.7778 -9.10668 556.465 -23.5095 -542.546
lowerback 32.7765 4.31104 1.82396
upperback 15.6369 2.07942 5.32443
thorax 0.131 -0.694537 3.99134
lowerneck -0.880448 -5.76727 0.0345764
upperneck -15.98 -7.57274 7.07085
head -4.35864 -4.47269 2.44501
rclavicle 3.65764e-014 3.49861e-014
rhumerus -18.2185 8.75036 -69.1981
rradius 57.6148
rwrist -5.16828
rhand -25.7926 -3.58807
rfingers 7.12502
rthumb 0.746069 -33.5665
lclavicle 3.65764e-014 3.49861e-014
lhumerus -8.09743 -16.9644 73.7052
lradius 57.4122
lwrist 28.9917
lhand -26.4681 -0.72672
lfingers 7.12502
lthumb 0.0936672 29.253
rfemur -50.6838 -5.04012 23.7989
rtibia 59.9819
rfoot -23.3885 -16.0383
rtoes -2.93395
lfemur -49.9451 14.4344 -23.8208
ltibia 56.059
lfoot -17.2049 7.94933
ltoes -29.9428
2784
root -33.5346 15.7708 -9.13187 556.347 -23.4771 -542.477
lowerback 32.7927 4.35005 1.81224
upperback 15.6503 2.1189 5.32084
thorax 0.13675 -0.678474 3.98224
lowerneck -0.855439 -5.78921 0.0362298
upperneck -15.9681 -7.59824 7.08476
head -4.35773 -4.48502 2.45011
rclavicle -4.29375e-014 -2.38542e-015
rhumerus -18.2255 8.72547 -69.1846
rradius 57.631
rwrist -5.18752
rhand -25.8071 -3.62813
rfingers 7.12502
rthumb 0.7321 -33.6066
lclavicle -4.29375e-014 -2.38542e-015
lhumerus -8.19416 -16.9211 73.7264
lradius 57.3282
lwrist 29.0146
lhand -26.5309 -0.761627
lfingers 7.12502
lthumb 0.0330204 29.2181
rfemur -50.531 -5.05351 23.8573
rtibia 60.1006
rfoot -23.5151 -16.0145
rtoes -3.00399
lfemur -50.2633 14.2976 -23.9962
ltibia 55.5798
lfoot -17.2681 7.51232
ltoes -30.9914
2785
root -33.5499 15.7635 -9.15627 556.216 -23.4319 -542.391
lowerback 32.8162 4.38852 1.80478
upperback 15.6635 2.15775 5.31433
thorax 0.140092 -0.662908 3.96797
lowerneck -0.831324 -5.80706 0.026206
upperneck -15.9366 -7.61833 7.09713
head -4.35041 -4.49286 2.45571
rclavicle 2.38542e-014 2.70347e-014
rhumerus -18.2402 8.71992 -69.17
rradius 57.6631
rwrist -5.20319
rhand -25.8421 -3.61448
rfingers 7.12502
rthumb 0.698209 -33.5931
lclavicle 2.38542e-014 2.70347e-014
lhumerus -8.30017 -16.8793 73.7381
lradius 57.2582
lwrist 29.0229
lhand -26.6039 -0.809625
lfingers 7.12502
lthumb -0.0374961 29.1701
rfemur -50.3763 -5.06359 23.9246
rtibia 60.2232
rfoot -23.6018 -16.0037
rtoes -3.18498
lfemur -50.5521 14.1578 -24.1513
ltibia 55.0535
lfoot -17.3207 7.16385
ltoes -31.8263
2786
root -33.5669 15.7559 -9.17988 556.071 -23.372 -542.289
lowerback 32.8461 4.42884 1.80061
upperback 15.6773 2.19843 5.30668
thorax 0.141986 -0.646863 3.95017
lowerneck -0.810281 -5.81928 0.00663892
upperneck -15.8833 -7.63199 7.09936
head -4.33615 -4.49521 2.45871
rclavicle -5.08889e-014 -5.40694e-014
rhumerus -18.2503 8.72294 -69.1567
rradius 57.6892
rwrist -5.20408
rhand -25.8949 -3.54151
rfingers 7.12502
rthumb 0.64726 -33.5203
lclavicle -5.08889e-014 -5.40694e-014
lhumerus -8.41126 -16.8383 73.7458
lradius 57.1989
lwrist 29.0118
lhand -26.6766 -0.860591
lfingers 7.12502
lthumb -0.107777 29.1191
rfemur -50.2218 -5.07448 24.002
rtibia 60.3515
rfoot -23.6458 -16.0048
rtoes -3.48943
lfemur -50.8003 14.011 -24.2782
ltibia 54.471
lfoot -17.3557 6.91491
ltoes -32.4661
2787
root -33.5856 15.7485 -9.20278 555.91 -23.2944 -542.168
lowerback 32.8763 4.47531 1.80074
upperback 15.6948 2.24584 5.29958
thorax 0.147772 -0.628126 3.92869
lowerneck -0.794484 -5.82906 -0.0136058
upperneck -15.8141 -7.64339 7.09232
head -4.31662 -4.49505 2.45819
rclavicle 3.81667e-014 -5.00937e-014
rhumerus -18.2467 8.71665 -69.1408
rradius 57.6934
rwrist -5.18987
rhand -25.9439 -3.43484
rfingers 7.12502
rthumb 0.599921 -33.4137
lclavicle 3.81667e-014 -5.00937e-014
lhumerus -8.51804 -16.8053 73.7484
lradius 57.1448
lwrist 28.9737
lhand -26.7453 -0.907656
lfingers 7.12502
lthumb -0.174049 29.072
rfemur -50.0663 -5.08435 24.0923
rtibia 60.4849
rfoot -23.6642 -15.9785
rtoes -3.80566
lfemur -50.9963 13.8587 -24.3676
ltibia 53.8182
lfoot -17.3701 6.75929
ltoes -32.8589
2788
root -33.6062 15.7409 -9.22504 555.735 -23.1973 -542.033
lowerback 32.91 4.52594 1.80069
upperback 15.7173 2.29546 5.29045
thorax 0.157698 -0.609321 3.9045
lowerneck -0.786219 -5.83674 -0.030346
upperneck -15.7354 -7.65321 7.07697
head -4.29351 -4.49347 2.45397
rclavicle 3.97569e-014 2.38542e-015
rhumerus -18.2374 8.73829 -69.1255
rradius 57.7164
rwrist -5.18362
rhand -25.9923 -3.36268
rfingers 7.12502
rthumb 0.553163 -33.3417
lclavicle 3.97569e-014 2.38542e-015
lhumerus -8.62217 -16.7704 73.7448
lradius 57.0951
lwrist 28.9171
lhand -26.7887 -0.968091
lfingers 7.12502
lthumb -0.216 29.0115
rfemur -49.9057 -5.09587 24.188
rtibia 60.623
rfoot -23.682 -15.9729
rtoes -4.22884
lfemur -51.1226 13.6952 -24.4164
ltibia 53.0779
lfoot -17.3644 6.66889
ltoes -32.9909
2789
root -33.6288 15.733 -9.24669 555.543 -23.0791 -541.886
lowerback 32.948 4.58436 1.7982
upperback 15.7451 2.35109 5.28105
thorax 0.171483 -0.588873 3.87951
lowerneck -0.861434 -5.84572 -0.0184437
upperneck -15.2141 -7.71801 6.85862
head -4.61331 -4.47925 2.64232
rclavicle -5.725e-014 -1.11319e-014
rhumerus -18.2066 8.75275 -69.1117
rradius 57.7116
rwrist -5.16043
rhand -26.0396 -3.27643
rfingers 7.12502
rthumb 0.507488 -33.2556
lclavicle -5.725e-014 -1.11319e-014
lhumerus -8.71837 -16.738 73.7369
lradius 57.0411
lwrist 28.8425
lhand -26.8304 -1.02967
lfingers 7.12502
lthumb -0.256297 28.9499
rfemur -49.7352 -5.10476 24.2872
rtibia 60.7607
rfoot -23.7079 -15.9753
rtoes -4.6941
lfemur -51.1695 13.5173 -24.4186
ltibia 52.2428
lfoot -17.3131 6.62533
ltoes -32.9949
2790
root -33.6534 15.7256 -9.26784 555.335 -22.9408 -541.73
lowerback 32.9904 4.6497 1.79081
upperback 15.7778 2.41105 5.27276
thorax 0.188402 -0.567816 3.85695
lowerneck -0.846865 -5.85691 -0.0260923
upperneck -15.1534 -7.73278 6.83908
head -4.59348 -4.4817 2.63467
rclavicle 9.54166e-015 5.1684e-014
rhumerus -18.166 8.77723 -69.0977
rradius 57.7031
rwrist -5.1319
rhand -26.0819 -3.21014
rfingers 7.12502
rthumb 0.466676 -33.1894
lclavicle 9.54166e-015 5.1684e-014
lhumerus -8.80956 -16.6978 73.7321
lradius 56.9792
lwrist 28.7548
lhand -26.8595 -1.0995
lfingers 7.12502
lthumb -0.284419 28.8801
rfemur -49.5475 -5.12368 24.3903
rtibia 60.889
rfoot -23.7472 -15.9764
rtoes -5.16686
lfemur -51.1323 13.3124 -24.3591
ltibia 51.3262
lfoot -17.152 6.52198
ltoes -32.9192
2791
root -33.68 15.7191 -9.28834 555.108 -22.7864 -541.565
lowerback 33.041 4.71804 1.78329
upperback 15.8155 2.47127 5.26556
thorax 0.20763 -0.54812 3.83541
lowerneck -0.825765 -5.8692 -0.0317379
upperneck -15.1115 -7.74953 6.81995
head -4.58188 -4.48637 2.62826
rclavicle -6.67916e-014 7.95139e-016
rhumerus -18.1256 8.82268 -69.083
rradius 57.7128
rwrist -5.10988
rhand -26.1257 -3.16251
rfingers 7.12502
rthumb 0.424317 -33.1418
lclavicle -6.67916e-014 7.95139e-016
lhumerus -8.89371 -16.6475 73.7309
lradius 56.9055
lwrist 28.6714
lhand -26.8994 -1.16605
lfingers 7.12502
lthumb -0.3229 28.8134
rfemur -49.3336 -5.15601 24.4992
rtibia 60.9969
rfoot -23.7945 -15.979
rtoes -5.61643
lfemur -51.008 13.0695 -24.2267
ltibia 50.3856
lfoot -16.8116 6.28526
ltoes -33.0816
